<?xml version="1.0" standalone="no"?>
<!DOCTYPE svg PUBLIC "-//W3C//DTD SVG 20010904//EN"
 "http://www.w3.org/TR/2001/REC-SVG-20010904/DTD/svg10.dtd">
<svg version="1.0" xmlns="http://www.w3.org/2000/svg"
 width="512.000000pt" height="512.000000pt" viewBox="0 0 512.000000 512.000000"
 preserveAspectRatio="xMidYMid meet">
<metadata>
Created by potrace 1.14, written by Peter Selinger 2001-2017
</metadata>
<g transform="translate(0.000000,512.000000) scale(0.100000,-0.100000)"
fill="#000000" stroke="none">
<path d="M2398 5115 c-1 -1 -40 -6 -84 -9 -45 -4 -93 -9 -105 -11 -13 -2 -40
-6 -59 -9 -319 -48 -664 -179 -950 -359 -68 -43 -194 -131 -220 -154 -8 -7
-37 -31 -65 -54 -137 -113 -338 -331 -448 -486 -202 -287 -347 -623 -416 -963
-38 -190 -46 -274 -45 -520 0 -183 3 -241 19 -345 3 -16 7 -43 9 -60 2 -16 12
-66 21 -110 127 -609 473 -1150 979 -1529 318 -238 735 -415 1111 -471 22 -4
54 -9 70 -12 68 -11 99 -13 295 -17 204 -3 305 3 475 30 29 5 195 41 225 49
37 11 93 26 123 34 142 39 465 192 620 295 221 146 416 320 575 511 201 241
378 563 469 850 2 6 21 78 42 160 41 158 50 207 68 370 15 140 8 496 -11 610
-3 17 -8 44 -10 60 -3 17 -10 55 -16 85 -6 30 -14 66 -16 80 -18 88 -89 306
-139 425 -26 60 -118 243 -155 305 -135 229 -388 522 -580 670 -24 19 -53 43
-65 53 -21 19 -215 149 -275 184 -58 35 -251 130 -310 153 -142 57 -406 135
-493 146 -16 2 -36 6 -46 8 -9 3 -43 8 -76 12 -33 3 -69 8 -80 11 -22 5 -431
13 -437 8z"/>
</g>
</svg>
